# xmcd
#
# Track frame offsets: 
#        150
#        14995
#        28581
#        42520
#        55128
#        70276
#        82567
#        95941
#        111489
#        126454
#        140965
#        154171
#        165815
#        180784
#        194163
#        208423
#
# Disc length: 2968 seconds
#
# Revision: 0
# Processed by: cddbd v1.5.2PL0 Copyright (c) Steve Scherf et al.
# Submitted via: ExactAudioCopy v0.99pb3
#
DISCID=f10b9610
DTITLE=Teodoro e Sampaio - Pitoco
DYEAR=2009
DGENRE=Country
TTITLE0=Safada
TTITLE1=Pitoco
TTITLE2=Doideira
TTITLE3=Arca de Mulher
TTITLE4=Ela Chora Chora
TTITLE5=Ela Quer Cortar Meu Saco
TTITLE6=Linguaruda
TTITLE7=Aqui Soh Tem File
TTITLE8=Estava Escrito
TTITLE9=Festa no C.A.
TTITLE10=Seu Redondo
TTITLE11=A Crise Ta Feia
TTITLE12=Machao DVD
TTITLE13=Homem Que Bate em Mulher
TTITLE14=Voo 155
TTITLE15=Pegou Fogo na Zona
EXTD=
EXTT0=
EXTT1=
EXTT2=
EXTT3=
EXTT4=
EXTT5=
EXTT6=
EXTT7=
EXTT8=
EXTT9=
EXTT10=
EXTT11=
EXTT12=
EXTT13=
EXTT14=
EXTT15=
PLAYORDER=
